<?xml version="1.0" standalone="no"?>
<!DOCTYPE svg PUBLIC "-//W3C//DTD SVG 20010904//EN"
 "http://www.w3.org/TR/2001/REC-SVG-20010904/DTD/svg10.dtd">
<svg version="1.0" xmlns="http://www.w3.org/2000/svg"
 width="512.000000pt" height="512.000000pt" viewBox="0 0 512.000000 512.000000"
 preserveAspectRatio="xMidYMid meet">
<metadata>
Created by potrace 1.11, written by Peter Selinger 2001-2013
</metadata>
<g transform="translate(0.000000,512.000000) scale(0.100000,-0.100000)"
fill="#000000" stroke="none">
<path d="M2428 4395 c-2 -1 -52 -5 -113 -9 -60 -3 -119 -8 -130 -10 -11 -2
-40 -7 -65 -10 -39 -5 -135 -22 -235 -41 -51 -10 -175 -44 -285 -80 -509 -163
-953 -474 -1226 -860 -135 -190 -237 -420 -278 -625 -23 -117 -25 -128 -31
-217 l-6 -83 2501 0 2502 0 -6 78 c-18 225 -68 407 -166 604 -97 195 -210 348
-379 516 -211 209 -474 379 -806 522 -164 71 -513 163 -700 185 -27 3 -59 8
-70 10 -58 12 -496 29 -507 20z m-62 -411 c4 -14 -64 -66 -77 -59 -7 5 1 19
22 41 32 33 50 39 55 18z m949 -149 c-28 -24 -42 -30 -47 -22 -11 17 62 81 76
66 8 -7 -1 -20 -29 -44z m-1635 -229 c0 -15 -55 -66 -71 -66 -18 0 -8 21 24
50 36 33 47 37 47 16z m1320 -186 c-36 -32 -45 -36 -55 -21 -8 14 67 73 79 61
6 -6 -2 -20 -24 -40z m723 -48 c-27 -24 -39 -30 -47 -22 -8 8 0 21 29 45 52
45 69 24 18 -23z m-1609 -81 c9 -14 -64 -75 -76 -63 -7 7 0 20 23 41 35 33 44
36 53 22z m-1450 -210 c3 -5 -10 -23 -30 -41 -27 -23 -39 -29 -48 -20 -8 8 -2
19 24 40 38 32 46 35 54 21z m3500 -129 c3 -5 -10 -24 -29 -42 -26 -25 -38
-31 -46 -23 -8 8 -2 19 22 42 36 32 45 36 53 23z m-1090 -130 c3 -5 -10 -24
-29 -42 -26 -25 -38 -31 -46 -23 -8 8 -2 19 22 42 36 32 45 36 53 23z m-1088
-88 c-29 -25 -42 -31 -48 -22 -10 17 63 81 77 66 7 -6 -3 -21 -29 -44z"/>
<path d="M183 2323 c-28 -27 -29 -54 -4 -77 19 -17 142 -18 2381 -18 2252 -1
2361 0 2380 17 25 23 25 46 2 76 l-19 22 -2359 1 -2359 1 -22 -22z"/>
<path d="M153 2120 c-94 -15 -124 -133 -47 -185 l31 -21 2431 1 2430 0 26 24
c52 49 42 137 -18 168 -28 15 -238 16 -2426 17 -1317 1 -2409 -1 -2427 -4z"/>
<path d="M4998 1805 c-2 -1 -43 -6 -93 -9 -181 -14 -217 -20 -315 -58 -77 -30
-236 -120 -285 -161 -58 -49 -269 -186 -340 -221 -145 -72 -234 -92 -391 -90
-237 4 -403 83 -692 332 -57 49 -190 124 -257 145 -51 16 -95 21 -165 21 -208
0 -331 -41 -756 -251 -269 -134 -427 -195 -566 -219 -86 -15 -239 -13 -310 5
-191 46 -356 190 -470 411 l-44 85 -127 2 -128 1 1 -206 c1 -116 7 -245 15
-296 38 -251 165 -465 321 -542 l59 -29 2105 0 2105 0 59 30 c75 36 152 113
205 203 41 69 94 205 105 273 3 19 8 45 12 59 3 14 9 134 11 268 4 200 3 242
-8 243 -8 0 -22 2 -31 4 -9 2 -18 2 -20 0z"/>
</g>
</svg>
